<mxfile host="app.diagrams.net" modified="2024-03-06T02:18:12.994Z" agent="Mozilla/5.0 (X11; Linux x86_64; rv:123.0) Gecko/20100101 Firefox/123.0" etag="QghJKOFmOkysDP5kY4Nu" version="24.0.2" type="github">
  <diagram name="Page-1" id="jrbTQ4AgCV-zVd88KRHM">
    <mxGraphModel dx="1114" dy="568" grid="1" gridSize="10" guides="1" tooltips="1" connect="1" arrows="1" fold="1" page="1" pageScale="1" pageWidth="850" pageHeight="1100" math="0" shadow="0">
      <root>
        <mxCell id="0" />
        <mxCell id="1" parent="0" />
        <mxCell id="6wsAO58S6ypK7O3adyhP-1" value="ssh client" style="rounded=1;whiteSpace=wrap;html=1;" vertex="1" parent="1">
          <mxGeometry x="120" y="180" width="120" height="60" as="geometry" />
        </mxCell>
        <mxCell id="6wsAO58S6ypK7O3adyhP-2" value="ssh server" style="rounded=1;whiteSpace=wrap;html=1;" vertex="1" parent="1">
          <mxGeometry x="480" y="180" width="120" height="60" as="geometry" />
        </mxCell>
        <mxCell id="6wsAO58S6ypK7O3adyhP-4" style="edgeStyle=orthogonalEdgeStyle;rounded=0;orthogonalLoop=1;jettySize=auto;html=1;" edge="1" parent="1" source="6wsAO58S6ypK7O3adyhP-1" target="6wsAO58S6ypK7O3adyhP-5">
          <mxGeometry relative="1" as="geometry">
            <mxPoint x="200.96000000000004" y="324" as="targetPoint" />
          </mxGeometry>
        </mxCell>
        <mxCell id="6wsAO58S6ypK7O3adyhP-6" style="edgeStyle=orthogonalEdgeStyle;rounded=0;orthogonalLoop=1;jettySize=auto;html=1;" edge="1" parent="1" source="6wsAO58S6ypK7O3adyhP-5">
          <mxGeometry relative="1" as="geometry">
            <mxPoint x="420" y="280" as="targetPoint" />
          </mxGeometry>
        </mxCell>
        <mxCell id="6wsAO58S6ypK7O3adyhP-7" value="yes" style="edgeLabel;html=1;align=center;verticalAlign=middle;resizable=0;points=[];" vertex="1" connectable="0" parent="6wsAO58S6ypK7O3adyhP-6">
          <mxGeometry x="-0.7708" y="-1" relative="1" as="geometry">
            <mxPoint as="offset" />
          </mxGeometry>
        </mxCell>
        <mxCell id="6wsAO58S6ypK7O3adyhP-8" style="edgeStyle=orthogonalEdgeStyle;rounded=0;orthogonalLoop=1;jettySize=auto;html=1;entryX=0.5;entryY=0;entryDx=0;entryDy=0;" edge="1" parent="1" source="6wsAO58S6ypK7O3adyhP-5" target="6wsAO58S6ypK7O3adyhP-10">
          <mxGeometry relative="1" as="geometry">
            <mxPoint x="180" y="520" as="targetPoint" />
          </mxGeometry>
        </mxCell>
        <mxCell id="6wsAO58S6ypK7O3adyhP-9" value="no" style="edgeLabel;html=1;align=center;verticalAlign=middle;resizable=0;points=[];" vertex="1" connectable="0" parent="6wsAO58S6ypK7O3adyhP-8">
          <mxGeometry x="-0.3035" y="-3" relative="1" as="geometry">
            <mxPoint as="offset" />
          </mxGeometry>
        </mxCell>
        <mxCell id="6wsAO58S6ypK7O3adyhP-5" value="is the server a known host?" style="rhombus;whiteSpace=wrap;html=1;" vertex="1" parent="1">
          <mxGeometry x="120" y="320" width="120" height="100" as="geometry" />
        </mxCell>
        <mxCell id="6wsAO58S6ypK7O3adyhP-10" value="verify server&#39;s public key&amp;nbsp; fingerprint" style="rounded=1;whiteSpace=wrap;html=1;" vertex="1" parent="1">
          <mxGeometry x="120" y="540" width="120" height="60" as="geometry" />
        </mxCell>
        <mxCell id="6wsAO58S6ypK7O3adyhP-11" value="this is to prevent man in middle attack" style="text;html=1;align=center;verticalAlign=middle;resizable=0;points=[];autosize=1;strokeColor=none;fillColor=none;" vertex="1" parent="1">
          <mxGeometry x="70" y="620" width="240" height="30" as="geometry" />
        </mxCell>
      </root>
    </mxGraphModel>
  </diagram>
</mxfile>
